<svg width="1080" height="720" viewBox="0 0 1080 720" fill="none" xmlns="http://www.w3.org/2000/svg">
<g clip-path="url(#clip0_395_627)">
<rect x="1080" width="360" height="360" transform="rotate(90 1080 0)" fill="#252525"/>
<g clip-path="url(#clip1_395_627)">
<rect width="720" height="360" transform="translate(1080) rotate(90)" fill="#252525"/>
<rect x="1080" y="360" width="360" height="360" transform="rotate(90 1080 360)" fill="#FF3B00"/>
<circle cx="1080" cy="360" r="360" transform="rotate(90 1080 360)" fill="#252525"/>
<circle cx="1080" cy="180" r="180" transform="rotate(90 1080 180)" fill="#FF3B00"/>
</g>
<g clip-path="url(#clip2_395_627)">
<rect width="360" height="360" transform="matrix(4.37114e-08 -1 -1 -4.37114e-08 720 720)" fill="#252525"/>
<circle cx="360" cy="360" r="360" transform="matrix(4.37114e-08 -1 -1 -4.37114e-08 1080 720)" fill="#FDF7EC"/>
</g>
<g clip-path="url(#clip3_395_627)">
<rect width="360" height="720" transform="translate(720) rotate(90)" fill="#252525"/>
<rect x="360" width="360" height="360" transform="rotate(90 360 0)" fill="#FDF7EC"/>
<rect x="720" width="360" height="360" transform="rotate(90 720 0)" fill="#FDF7EC"/>
<circle cx="360" cy="360" r="360" transform="rotate(90 360 360)" fill="#252525"/>
</g>
<g clip-path="url(#clip4_395_627)">
<rect x="360" y="360" width="360" height="360" transform="rotate(90 360 360)" fill="#252525"/>
<circle cx="180" cy="360" r="180" transform="rotate(90 180 360)" fill="#FF3B00"/>
</g>
</g>
<defs>
<clipPath id="clip0_395_627">
<rect width="720" height="1080" fill="white" transform="translate(1080) rotate(90)"/>
</clipPath>
<clipPath id="clip1_395_627">
<rect width="720" height="360" fill="white" transform="translate(1080) rotate(90)"/>
</clipPath>
<clipPath id="clip2_395_627">
<rect width="360" height="360" fill="white" transform="matrix(4.37114e-08 -1 -1 -4.37114e-08 720 720)"/>
</clipPath>
<clipPath id="clip3_395_627">
<rect width="360" height="720" fill="white" transform="translate(720) rotate(90)"/>
</clipPath>
<clipPath id="clip4_395_627">
<rect width="360" height="360" fill="white" transform="translate(360 360) rotate(90)"/>
</clipPath>
</defs>
</svg>
